<svg xmlns="http://www.w3.org/2000/svg" viewBox="0 0 24 24" id="send-email"><path fill="#1e88e5" d="m15.7 18.15-.03.08-5.67 5.6L12.51 17z"></path><path fill="#64b5f6" d="M23.854.306a.749.749 0 0 0-.952-.221l-22.5 11.75a.75.75 0 0 0 .077 1.364l7.75 3a.753.753 0 0 0 .801-.169L23.78 1.28a.749.749 0 0 0 .074-.974z"></path><path fill="#64b5f6" d="M23.498.042a.754.754 0 0 0-.874.295l-10.74 16.25a.746.746 0 0 0 .372 1.118l8.989 3.25a.749.749 0 0 0 1.002-.637l1.75-19.5a.75.75 0 0 0-.499-.776z"></path><path fill="#2196f3" d="M23.25.75 12.255 17.705 10 23.83 8 16z"></path></svg>