<svg xmlns="http://www.w3.org/2000/svg" enable-background="new 0 0 5000 5000" viewBox="0 0 5000 5000" id="cool-sunglasses-man-peace-sign-hand"><g><g><g><circle cx="2500" cy="2500" r="2038" fill="#fff"></circle><path fill="#262525" d="M2500,4541.5c-138.511,0-276.936-13.954-411.43-41.476
				c-131.078-26.823-260.01-66.846-383.215-118.957c-120.968-51.165-237.642-114.493-346.779-188.226
				c-108.1-73.031-209.752-156.902-302.134-249.284c-92.381-92.381-176.252-194.033-249.283-302.134
				c-73.733-109.138-137.061-225.812-188.226-346.779c-52.112-123.205-92.134-252.138-118.957-383.215
				C472.455,2776.936,458.5,2638.511,458.5,2500c0-138.511,13.955-276.936,41.476-411.43
				c26.822-131.077,66.845-260.009,118.957-383.215c51.166-120.968,114.493-237.642,188.226-346.779
				c73.031-108.101,156.902-209.753,249.283-302.134c92.382-92.381,194.034-176.252,302.134-249.283
				c109.138-73.732,225.812-137.061,346.779-188.226c123.206-52.112,252.138-92.134,383.215-118.957
				C2223.064,472.455,2361.489,458.5,2500,458.5c138.511,0,276.936,13.955,411.43,41.476
				c131.078,26.822,260.01,66.845,383.215,118.957c120.969,51.165,237.642,114.493,346.78,188.226
				c108.101,73.031,209.753,156.902,302.134,249.283c92.382,92.381,176.252,194.034,249.283,302.134
				c73.732,109.138,137.061,225.812,188.226,346.779c52.111,123.206,92.134,252.138,118.957,383.215
				c27.521,134.494,41.476,272.919,41.476,411.43c0,138.511-13.954,276.936-41.476,411.43
				c-26.823,131.077-66.846,260.01-118.957,383.215c-51.165,120.968-114.493,237.642-188.226,346.779
				c-73.031,108.101-156.901,209.753-249.283,302.134c-92.381,92.382-194.033,176.253-302.134,249.284
				c-109.139,73.732-225.812,137.061-346.78,188.226c-123.205,52.111-252.137,92.134-383.215,118.957
				C2776.936,4527.546,2638.511,4541.5,2500,4541.5z M2500,465.5c-1121.827,0-2034.5,912.673-2034.5,2034.5
				S1378.173,4534.5,2500,4534.5S4534.5,3621.827,4534.5,2500S3621.827,465.5,2500,465.5z"></path></g><g><g><g><path fill="#fff" d="M3267.716,2908.461h-180.299c-81.472,0-147.518-66.046-147.518-147.518v-652.356
						c0-81.472,66.046-147.518,147.518-147.518h180.299c81.472,0,147.518,66.046,147.518,147.518v652.356
						C3415.234,2842.415,3349.188,2908.461,3267.716,2908.461z"></path><path fill="#262525" d="M3267.717,2911.961h-180.3c-83.271,0-151.018-67.746-151.018-151.018v-652.356
						c0-83.271,67.746-151.018,151.018-151.018h180.3c83.271,0,151.018,67.747,151.018,151.018v652.356
						C3418.734,2844.215,3350.988,2911.961,3267.717,2911.961z M3087.417,1964.569c-79.411,0-144.018,64.606-144.018,144.018
						v652.356c0,79.411,64.606,144.018,144.018,144.018h180.3c79.411,0,144.018-64.606,144.018-144.018v-652.356
						c0-79.412-64.606-144.018-144.018-144.018H3087.417z"></path></g><g><path fill="#262525" d="M2939.899,2590.717c257.703,0,433.323-210.965,433.323-521.433l22.343-34.254
						c-25.482-44.191-73.173-73.96-127.849-73.96h-180.3c-81.471,0-147.518,66.046-147.518,147.518V2590.717z"></path><path fill="#262525" d="M2939.899,2594.217c-1.933,0-3.5-1.567-3.5-3.5v-482.129
						c0-83.271,67.746-151.018,151.018-151.018h180.3c53.802,0,103.952,29.011,130.881,75.711c0.658,1.142,0.619,2.557-0.101,3.661
						l-21.775,33.383c-0.096,76.307-10.738,147.791-31.636,212.487c-20.53,63.559-50.54,119.359-89.195,165.852
						c-38.69,46.535-85.148,82.672-138.084,107.41C3063.646,2581.384,3003.788,2594.217,2939.899,2594.217z M3087.417,1964.569
						c-79.411,0-144.018,64.606-144.018,144.018v478.617c255.169-1.87,426.323-209.528,426.323-517.921
						c0-0.679,0.197-1.343,0.568-1.912l21.159-32.439c-25.929-43.455-73.14-70.362-123.733-70.362H3087.417z"></path></g></g><g><g><path fill="#fff" d="M2889.089,2508.524c-180.144,0-326.179-146.035-326.179-326.178v-627.77
						c0-235.362,190.799-426.162,426.162-426.162c235.364,0,426.163,190.799,426.163,426.162v427.802
						C3415.234,2272.961,3179.671,2508.524,2889.089,2508.524z"></path><path fill="#262525" d="M2889.089,2512.024c-88.061,0-170.851-34.292-233.118-96.561
						c-62.269-62.268-96.561-145.058-96.561-233.118v-627.77c0-58.002,11.36-114.272,33.767-167.245
						c21.641-51.164,52.62-97.114,92.078-136.572c39.458-39.458,85.408-70.438,136.571-92.079
						c52.974-22.406,109.243-33.767,167.245-33.767c58.003,0,114.272,11.361,167.246,33.767
						c51.164,21.641,97.113,52.62,136.572,92.079c39.458,39.458,70.438,85.408,92.078,136.572
						c22.406,52.973,33.767,109.243,33.767,167.245v427.802c0,71.5-14.004,140.863-41.624,206.163
						c-26.676,63.07-64.865,119.712-113.506,168.353s-105.282,86.83-168.353,113.506
						C3029.952,2498.02,2960.589,2512.024,2889.089,2512.024z M2989.071,1131.914c-233.056,0-422.661,189.605-422.661,422.662
						v627.77c0,177.926,144.753,322.679,322.679,322.679c288.188,0,522.646-234.458,522.646-522.646v-427.802
						C3411.734,1321.52,3222.129,1131.914,2989.071,1131.914z"></path></g><g><path fill="#262525" d="M2561.519,1751.676c0,0-48.53-160.567-68.112-285.888
						c-19.581-125.32,45.685-254.557,109-254.557c0,0,122.082-203.645,507.822-168.399
						c385.741,35.246,388.519,399.459,388.519,399.459s89.988,33.288,121.172,170.357s-65.206,324.242-100.452,347.164
						c0,0,29.372,199.302-103.669,270.504l-7.049-171.021l-77.917-209.268c0,0,3.04-204.004-43.404-267.729
						c-63.15-86.647-42.1-187.002-42.1-187.002s-89.1-74.409-204.843-15.665c-112.453,57.074-189.231,290.783-478.968,233.507
						V1751.676z"></path><path fill="#262525" d="M3415.8,2233.816c-0.6,0-1.199-0.154-1.736-0.461c-1.046-0.598-1.711-1.691-1.761-2.895
						l-7.026-170.465l-77.723-208.748c-0.151-0.407-0.226-0.839-0.22-1.273c0.03-2.028,2.492-203.563-42.732-265.615
						c-33.108-45.427-42.959-94.572-45.394-127.799c-2.228-30.417,1.078-52.939,2.289-59.822
						c-5.673-4.307-26.196-18.81-56.492-28.043c-32.847-10.01-84.308-15.698-142.935,14.058
						c-32.394,16.441-61.372,47.355-94.925,83.151c-67.814,72.347-149.715,159.691-299.055,159.702
						c-25.621,0.001-53.21-2.569-83.072-8.225v134.295c0,1.735-1.271,3.208-2.988,3.462c-1.718,0.253-3.359-0.789-3.862-2.45
						c-0.485-1.608-48.824-162.235-68.219-286.36c-6.5-41.597-4.132-85.951,6.848-128.266c10.08-38.849,26.881-73.388,47.309-97.255
						c17.905-20.92,37.343-32.306,56.345-33.039c6.04-9.322,37.821-54.67,109.436-96.969c46.04-27.193,99.04-47.362,157.526-59.947
						c72.994-15.707,154.796-19.578,243.136-11.507c88.615,8.097,164.371,34.315,225.162,77.927
						c48.68,34.922,87.892,80.985,116.547,136.91c44.395,86.641,49.386,170.764,49.928,185.736
						c6.413,2.786,25.74,12.273,47.886,33.63c24.426,23.556,56.964,66.675,73.264,138.323
						c18.271,80.311-8.099,171.29-25.443,218.373c-24.258,65.848-56.39,117.335-74.679,131.206
						c1.257,10.245,5.953,55.712-2.23,107.459c-5.457,34.503-15.482,65.053-29.798,90.802
						c-17.978,32.333-42.784,57.126-73.732,73.689C3416.935,2233.679,3416.367,2233.816,3415.8,2233.816z M3334.342,1849.416
						l77.688,208.658c0.128,0.345,0.201,0.709,0.217,1.077l6.815,165.345c63.665-36.806,86.816-105.072,94.977-156.5
						c9.132-57.55,2.04-107.179,1.967-107.673c-0.198-1.353,0.408-2.698,1.555-3.444c16.583-10.785,49.499-63.191,73.761-129.053
						c17.077-46.356,43.057-135.852,25.187-214.401c-15.869-69.754-47.371-111.672-71.004-134.554
						c-25.601-24.788-47.752-33.216-47.973-33.298c-1.36-0.507-2.271-1.802-2.282-3.254c-0.007-0.904-1.286-91.541-49.346-185.185
						c-44.244-86.21-138.45-192.766-335.992-210.816c-198.048-18.096-324.68,28.22-396.04,70.26
						c-77.254,45.512-108.16,95.952-108.463,96.456c-0.633,1.052-1.772,1.698-3.001,1.698c-17.513,0-35.835,10.591-52.984,30.628
						c-35.398,41.359-66.944,127.811-52.558,219.889c14.919,95.483,47.063,212.754,61.153,261.953v-114.063
						c0-1.047,0.469-2.04,1.278-2.704c0.809-0.665,1.871-0.932,2.9-0.729c202.953,40.118,301.033-64.514,379.841-148.588
						c32.59-34.769,63.373-67.608,96.864-84.606c60.829-30.873,114.295-24.883,148.435-14.422
						c36.994,11.335,59.305,29.743,60.236,30.521c0.992,0.829,1.447,2.138,1.183,3.404c-0.052,0.248-5.148,25.202-2.549,60.271
						c2.391,32.253,11.975,79.939,44.051,123.952c19.644,26.952,33.026,80.624,39.778,159.525
						C3334.73,1794.625,3334.405,1843.216,3334.342,1849.416z"></path></g><g><g><path fill="#262525" d="M2939.896,1860.576c-0.598,0-1.203-0.153-1.757-0.476c-1.668-0.972-2.235-3.11-1.266-4.78
							c0.624-1.076,15.697-26.534,50.694-43.199c20.483-9.753,43.546-14.412,68.58-13.862c31.069,0.69,65.242,9.483,101.569,26.133
							c1.758,0.805,2.529,2.883,1.724,4.64s-2.884,2.528-4.64,1.723c-63.181-28.957-119.84-33.277-163.854-12.49
							c-33.2,15.679-47.879,40.327-48.023,40.574C2942.272,1859.954,2941.101,1860.576,2939.896,1860.576z"></path><path fill="#262525" d="M3074.305,1836.862c0,26.252-15.411,28.776-34.421,28.776c-19.01,0-34.421-2.524-34.421-28.776
							c0-35.148,15.411-35.148,34.421-35.148C3058.894,1801.715,3074.305,1802.143,3074.305,1836.862z"></path></g><g><path fill="#262525" d="M2764.521,1860.578c-1.206,0-2.38-0.625-3.029-1.743c-0.258-0.435-14.951-24.952-48.021-40.569
							c-44.014-20.785-100.674-16.468-163.854,12.49c-1.753,0.805-3.834,0.034-4.64-1.723s-0.034-3.835,1.724-4.64
							c36.327-16.65,70.5-25.443,101.569-26.133c25.016-0.547,48.098,4.107,68.58,13.862c34.996,16.665,50.07,42.124,50.694,43.199
							c0.971,1.671,0.402,3.813-1.269,4.784C2765.722,1860.425,2765.117,1860.578,2764.521,1860.578z"></path><path fill="#262525" d="M2630.112,1836.862c0,26.252,15.411,28.776,34.421,28.776s34.421-2.524,34.421-28.776
							c0-35.148-15.411-35.148-34.421-35.148S2630.112,1802.143,2630.112,1836.862z"></path></g><path fill="#262525" d="M2819.301 2095.856c-12.76 0-24.375-.286-31.635-1.099-7.294-.816-13.768-4.484-18.228-10.33-4.471-5.857-6.304-13.088-5.163-20.361 16.014-102.067 63.598-270.541 64.077-272.23.526-1.861 2.462-2.941 4.321-2.414 1.859.527 2.94 2.462 2.413 4.322-.478 1.686-47.948 169.759-63.896 271.407-.843 5.368.511 10.706 3.812 15.03 3.29 4.312 8.064 7.018 13.442 7.62 23.491 2.631 97.02-.526 97.759-.558 1.913-.089 3.565 1.413 3.649 3.344s-1.414 3.565-3.345 3.649C2884.385 2094.329 2848.785 2095.856 2819.301 2095.856zM2848.96 2250.428c-30.719 0-67.47-7.167-106.092-30.294-1.658-.993-2.198-3.143-1.205-4.801.994-1.658 3.146-2.195 4.801-1.205 56.87 34.055 109.482 32.31 143.603 24.848 37.112-8.115 61.073-24.553 61.312-24.719 1.586-1.102 3.768-.71 4.87.875 1.104 1.586.714 3.766-.872 4.87-1.008.702-25.133 17.294-63.519 25.747C2879.638 2248.44 2865.134 2250.428 2848.96 2250.428z"></path><g><path fill="#262525" d="M3087.053,1737.425h-94.338c-12.875,0-23.312-10.437-23.312-23.311
							c0-12.875,10.437-23.312,23.312-23.312h94.338c12.875,0,23.312,10.437,23.312,23.312
							C3110.364,1726.989,3099.927,1737.425,3087.053,1737.425z"></path><path fill="#262525" d="M3087.053,1740.925h-94.338c-14.784,0-26.812-12.027-26.812-26.811
							s12.027-26.812,26.812-26.812h94.338c14.784,0,26.812,12.028,26.812,26.812S3101.837,1740.925,3087.053,1740.925z
							 M2992.715,1694.303c-10.924,0-19.812,8.887-19.812,19.812c0,10.924,8.888,19.811,19.812,19.811h94.338
							c10.924,0,19.812-8.887,19.812-19.811c0-10.924-8.888-19.812-19.812-19.812H2992.715z"></path></g><g><path fill="#262525" d="M2721.355,1737.425h-94.338c-12.875,0-23.312-10.437-23.312-23.311
							c0-12.875,10.437-23.312,23.312-23.312h94.338c12.875,0,23.312,10.437,23.312,23.312
							C2744.666,1726.989,2734.229,1737.425,2721.355,1737.425z"></path><path fill="#262525" d="M2721.354,1740.925h-94.338c-14.784,0-26.812-12.027-26.812-26.811
							s12.027-26.812,26.812-26.812h94.338c14.784,0,26.812,12.028,26.812,26.812S2736.139,1740.925,2721.354,1740.925z
							 M2627.017,1694.303c-10.924,0-19.812,8.887-19.812,19.812c0,10.924,8.888,19.811,19.812,19.811h94.338
							c10.924,0,19.812-8.887,19.812-19.811c0-10.924-8.888-19.812-19.812-19.812H2627.017z"></path></g></g><g><g><path fill="#262525" d="M3087.527,2063.538h-173.975c-34.445,0-62.368-27.923-62.368-62.369v-62.143
							c0-34.445,27.923-62.368,62.368-62.368h201.568c45.124,0,75.314,46.438,57.002,87.679l-27.593,62.143
							C3134.523,2049.013,3112.182,2063.538,3087.527,2063.538z"></path><path fill="#262525" d="M3087.527,2067.038h-173.976c-36.319,0-65.868-29.548-65.868-65.869v-62.143
							c0-36.32,29.549-65.869,65.868-65.869h201.568c22.381,0,43.025,11.203,55.225,29.967
							c12.198,18.764,14.059,42.178,4.977,62.633l-27.593,62.143C3137.171,2051.675,3113.541,2067.038,3087.527,2067.038z
							 M2913.552,1880.158c-32.46,0-58.868,26.408-58.868,58.869v62.143c0,32.46,26.408,58.869,58.868,58.869h173.976
							c23.249,0,44.368-13.73,53.803-34.979l27.593-62.143c8.118-18.281,6.455-39.207-4.447-55.977
							c-10.902-16.771-29.354-26.782-49.355-26.782H2913.552z"></path></g><g><path fill="#262525" d="M2514.49,2063.538h170.698c34.445,0,62.369-27.923,62.369-62.369v-62.143
							c0-34.445-27.923-62.368-62.369-62.368h-199.646c-45.611,0-75.795,47.359-56.535,88.704l28.948,62.143
							C2468.193,2049.484,2490.243,2063.538,2514.49,2063.538z"></path><path fill="#262525" d="M2685.188,2067.038H2514.49c-25.502,0-48.939-14.938-59.708-38.055l-28.948-62.143
							c-9.552-20.507-7.996-44.139,4.163-63.216s32.924-30.466,55.546-30.466h199.646c36.319,0,65.868,29.548,65.868,65.869v62.143
							C2751.057,2037.489,2721.508,2067.038,2685.188,2067.038z M2485.542,1880.158c-20.218,0-38.776,10.179-49.643,27.229
							s-12.257,38.171-3.72,56.498l28.948,62.143c9.624,20.661,30.57,34.011,53.363,34.011h170.698
							c32.46,0,58.868-26.408,58.868-58.869v-62.143c0-32.46-26.408-58.869-58.868-58.869H2485.542z"></path></g><path fill="#262525" d="M2851.184,1932.965h-26.954c-1.13,0-2.189-0.545-2.847-1.464
						c-0.338-0.464-8.681-11.648-25.563-11.648c-17.131,0-27.872,11.815-27.979,11.935c-0.664,0.744-1.621,1.177-2.618,1.177
						h-17.666c-1.933,0-3.5-1.567-3.5-3.5s1.567-3.5,3.5-3.5h16.187c3.535-3.448,14.97-13.112,32.076-13.112
						c16.886,0,26.809,9.399,30.069,13.112h25.295c1.933,0,3.5,1.567,3.5,3.5S2853.116,1932.965,2851.184,1932.965z"></path></g><g><path fill="#262525" d="M2877.552,2411.61l23.953-41.488c17.441-30.208-4.36-67.967-39.241-67.967h-49.436
						c-34.881,0-56.681,37.76-39.241,67.967l23.953,41.488C2815.321,2442.407,2859.772,2442.407,2877.552,2411.61z"></path><path fill="#262525" d="M2837.547,2438.208C2837.545,2438.208,2837.547,2438.208,2837.547,2438.208
						c-17.966,0-34.055-9.289-43.037-24.848l-23.953-41.488c-8.823-15.282-8.823-33.529,0-48.811
						c8.823-15.282,24.626-24.406,42.271-24.406h49.437c17.646,0,33.449,9.124,42.272,24.406s8.823,33.529,0,48.811l-23.953,41.488
						l0,0C2871.601,2428.918,2855.511,2438.208,2837.547,2438.208z M2812.828,2305.655c-15.115,0-28.651,7.815-36.209,20.906
						c-7.558,13.09-7.558,28.721,0,41.811l23.953,41.488c7.717,13.367,21.539,21.348,36.974,21.348
						c15.436,0,29.258-7.98,36.976-21.348l23.953-41.488c7.558-13.09,7.558-28.721,0-41.811s-21.094-20.906-36.21-20.906H2812.828z
						 M2877.553,2411.61h0.01H2877.553z"></path></g><g><g><g><path fill="#fff" d="M3517.489,2010.231l-91.127,43.27c-74.174,35.22-159.739-18.872-159.739-100.983
								c0-43.163,24.849-82.469,63.839-100.983l91.127-43.269c74.174-35.22,159.739,18.872,159.739,100.983
								C3581.328,1952.411,3556.479,1991.718,3517.489,2010.231z"></path><path fill="#262525" d="M3397.955,2066.187c-1.66,0-3.134-1.186-3.44-2.877c-0.344-1.902,0.919-3.723,2.82-4.067
								c9.415-1.705,18.676-4.701,27.526-8.903l91.127-43.27c37.566-17.838,61.84-56.235,61.84-97.822
								c0-37.354-18.85-71.572-50.424-91.532c-31.575-19.961-70.569-22.312-104.313-6.29l-91.127,43.27
								c-8.349,3.964-16.159,8.981-23.216,14.911c-1.479,1.244-3.688,1.053-4.932-0.428c-1.243-1.479-1.052-3.688,0.428-4.931
								c7.514-6.313,15.829-11.655,24.718-15.875l91.127-43.27c35.923-17.058,77.44-14.556,111.056,6.696
								c33.615,21.25,53.684,57.68,53.684,97.449c0,44.275-25.843,85.154-65.838,104.145l-91.127,43.27
								c-9.407,4.467-19.259,7.652-29.28,9.467C3398.372,2066.168,3398.162,2066.187,3397.955,2066.187z"></path></g><g><path fill="#262525" d="M3369.28,1995.449c-1.021,0-2.034-0.445-2.726-1.302
								c-11.735-14.539-18.198-32.856-18.198-51.577c0-45.312,36.864-82.176,82.176-82.176c29.101,0,55.44,14.903,70.461,39.865
								c0.996,1.656,0.462,3.807-1.194,4.804s-3.807,0.461-4.804-1.194c-13.742-22.839-37.841-36.474-64.463-36.474
								c-41.452,0-75.176,33.724-75.176,75.176c0,17.126,5.911,33.882,16.646,47.181c1.214,1.504,0.979,3.708-0.525,4.922
								C3370.829,1995.195,3370.053,1995.449,3369.28,1995.449z"></path><path fill="#262525" d="M3450.608,1960.329c-1.123,0-2.227-0.54-2.903-1.541
								c-14.021-20.755-37.325-33.146-62.339-33.146c-11.854,0-20.335,2.854-29.423,7.141c-1.747,0.824-3.833,0.076-4.659-1.672
								c-0.824-1.749-0.075-3.834,1.673-4.659c9.939-4.688,19.255-7.81,32.409-7.81c27.342,0,52.814,13.543,68.14,36.228
								c1.082,1.602,0.66,3.778-0.941,4.86C3451.964,1960.135,3451.282,1960.329,3450.608,1960.329z"></path></g></g><g><circle cx="3381.404" cy="2050.283" r="25.552" fill="#fff"></circle><path fill="#262525" d="M3381.404,2079.336c-16.02,0-29.053-13.033-29.053-29.052s13.033-29.052,29.053-29.052
							s29.052,13.033,29.052,29.052S3397.424,2079.336,3381.404,2079.336z M3381.404,2028.231c-12.16,0-22.053,9.893-22.053,22.052
							s9.893,22.052,22.053,22.052c12.159,0,22.052-9.893,22.052-22.052S3393.563,2028.231,3381.404,2028.231z"></path></g></g></g><g><g><path fill="#fff" d="M2517.587,2858.308c-142.869-87.909-329.952-43.357-417.862,99.511l-696.711,1260.046
						c169.945,108.748,357.103,192.948,556.467,247.65l657.619-1189.342C2705.01,3133.302,2660.457,2946.219,2517.587,2858.308z"></path><path fill="#262525" d="M1959.481,4469.014c-0.308,0-0.619-0.04-0.927-0.125
						c-197.186-54.104-384.731-137.568-557.427-248.076c-1.555-0.995-2.069-3.026-1.176-4.642l696.711-1260.046
						c0.026-0.048,0.054-0.095,0.082-0.141c43.007-69.894,110.659-118.855,190.492-137.867
						c79.833-19.013,162.292-5.796,232.185,37.21c69.895,43.008,118.857,110.659,137.87,190.492
						c19.006,79.809,5.807,162.238-37.17,232.119l-657.578,1189.269C1961.916,4468.342,1960.73,4469.014,1959.481,4469.014z
						 M1407.666,4216.683c170.558,108.753,355.609,191.08,550.085,244.726l656.284-1186.93c0.026-0.048,0.054-0.095,0.083-0.141
						c86.759-140.997,42.632-326.291-98.365-413.05c-140.971-86.74-326.228-42.637-413.006,98.298L1407.666,4216.683z"></path></g><g><path fill="#262525" d="M2515.198,2828.727c-175.564-98.78-397.925-37.873-498.647,136.583l-717.243,1181.604
						c32.034,23.394,64.785,45.863,98.197,67.396c174.969-5.26,339.832,76.386,442.216,214.318
						c59.38,20.325,119.995,37.984,181.705,52.835l638.737-1160.949C2752.983,3144.377,2688.717,2926.357,2515.198,2828.727z"></path><path fill="#262525" d="M2021.427,4484.964c-0.271,0-0.546-0.031-0.819-0.098
						c-61.216-14.732-122.457-32.539-182.02-52.926c-0.67-0.229-1.255-0.656-1.677-1.226
						c-102.801-138.494-267.024-218.059-439.3-212.907c-0.71,0.01-1.406-0.173-2.001-0.556
						c-33.413-21.532-66.508-44.246-98.365-67.511c-1.468-1.071-1.871-3.089-0.928-4.643l717.243-1181.604
						c49.139-85.111,128.464-146.331,223.325-172.314c94.864-25.983,194.312-13.732,280.031,34.497
						c84.72,47.668,146.515,125.271,174,218.514c27.485,93.244,17.664,191.957-27.655,277.957l-638.767,1161.004
						C2023.868,4484.287,2022.681,4484.964,2021.427,4484.964z M1841.881,4425.669c58.195,19.883,117.976,37.291,177.767,51.766
						l637.448-1158.606c92.578-175.682,29.509-389.644-143.614-487.051c-173.054-97.367-394.617-36.681-493.9,135.283
						l-715.613,1178.921c30.657,22.312,62.438,44.1,94.52,64.798C1572.283,4205.91,1737.892,4286.166,1841.881,4425.669z"></path></g></g><g><g><polygon fill="#fff" points="2939.899 2720.612 3415.234 2720.612 3674.109 3104.938 2709.981 3104.938"></polygon><path fill="#262525" d="M3674.109,3108.438h-964.128c-1.26,0-2.423-0.678-3.045-1.773
						c-0.621-1.097-0.605-2.442,0.041-3.523l229.918-384.325c0.994-1.659,3.146-2.196,4.801-1.207
						c1.659,0.993,2.199,3.142,1.207,4.801l-226.749,379.028h951.378l-255.202-378.87c-1.079-1.603-0.655-3.778,0.948-4.858
						c1.603-1.077,3.777-0.656,4.858,0.948l258.876,384.325c0.723,1.073,0.794,2.457,0.187,3.6
						C3676.592,3107.724,3675.403,3108.438,3674.109,3108.438z"></path></g><g><g><g><path fill="#fff" d="M4327.774,3080.635c5.843-140.546-95.826-262.623-235.111-282.294l-677.43-77.729
								c0,0-137.882,230.706-391.861,160.533c-91.301-25.226-83.473-160.533-83.473-160.533l-587.42,85.898
								c-103.619,15.203-180.312,104.255-179.983,208.984l30.26,1500.944C2299.79,4530.618,2399.031,4538,2500,4538
								c789.971,0,1474.946-449.474,1813.185-1106.622L4327.774,3080.635z"></path><path fill="#262525" d="M2500,4541.5c-99.499,0-199.677-7.267-297.75-21.599c-1.693-0.247-2.959-1.682-2.994-3.393
								l-30.26-1500.944c-0.162-51.554,18.255-101.4,51.858-140.419c33.604-39.019,80.168-64.623,131.116-72.099l587.421-85.898
								c1.039-0.154,2.095,0.172,2.87,0.882c0.776,0.71,1.191,1.732,1.131,2.782c-0.019,0.335-1.811,33.854,7.437,69.899
								c12.231,47.678,36.951,76.968,73.475,87.059c129.732,35.847,228.2-9.168,287.958-53.243
								c64.967-47.916,99.624-105.14,99.967-105.712c0.706-1.181,2.038-1.832,3.402-1.682l677.432,77.729
								c68.315,9.647,130.173,44.112,174.268,97.057s66.803,120.017,63.94,188.861l-14.589,350.742
								c-0.021,0.508-0.152,1.005-0.385,1.456c-169.073,328.484-424.427,605.504-738.455,801.111
								c-158.353,98.637-329.219,174.934-507.853,226.772C2885.605,4514.37,2693.834,4541.5,2500,4541.5z M2206.196,4513.401
								c96.802,14.001,195.635,21.099,293.804,21.099c765.529,0,1458.888-422.985,1809.721-1104.038l14.557-349.972l3.497,0.146
								l-3.497-0.146c5.794-139.37-93.988-259.178-232.103-278.684l-675.146-77.467c-6.706,10.52-41.168,61.919-100.405,105.669
								c-38.824,28.673-80.562,48.544-124.054,59.06c-54.38,13.147-111.619,11.617-170.13-4.55
								c-38.611-10.668-65.732-42.562-78.434-92.233c-7.629-29.838-7.955-57.288-7.749-67.604l-583.272,85.292
								c-101.221,14.852-177.31,103.202-176.989,205.511L2206.196,4513.401z"></path></g><g><g><path fill="#fff" d="M3824.776,4048.682H2193.327l2.273,112.835h1484.842
									C3730.271,4126.051,3778.415,4088.377,3824.776,4048.682z"></path><path fill="#262525" d="M3680.442,4165.017H2195.601c-1.905,0-3.461-1.524-3.499-3.43l-2.274-112.835
									c-0.019-0.94,0.342-1.849,1-2.521c0.659-0.671,1.56-1.05,2.5-1.05h1631.449c1.465,0,2.775,0.912,3.283,2.286
									c0.508,1.375,0.105,2.92-1.007,3.872c-46.501,39.815-95.145,77.843-144.581,113.028
									C3681.879,4164.79,3681.17,4165.017,3680.442,4165.017z M2199.031,4158.017h1480.292
									c46.397-33.062,92.092-68.636,135.95-105.835H2196.898L2199.031,4158.017z"></path></g><g><path fill="#fff" d="M4052.014,3820.882l2.436-58.567H2187.552l2.275,112.835h1814.281
									C4020.393,3857.347,4036.363,3839.255,4052.014,3820.882z"></path><path fill="#262525" d="M4004.108,3878.649h-1814.28c-1.905,0-3.461-1.524-3.499-3.43l-2.276-112.835
									c-0.019-0.94,0.342-1.849,1-2.521c0.658-0.671,1.559-1.05,2.5-1.05H4054.45c0.953,0,1.866,0.389,2.525,1.077
									c0.66,0.688,1.011,1.615,0.972,2.568l-2.436,58.567c-0.032,0.781-0.326,1.529-0.833,2.124
									c-15.625,18.342-31.771,36.631-47.987,54.36C4006.028,3878.236,4005.091,3878.649,4004.108,3878.649z M2193.258,3871.649
									h1809.308c15.542-17.018,31.008-34.539,46.001-52.119l2.234-53.716H2191.124L2193.258,3871.649z M4052.015,3820.882h0.01
									H4052.015z"></path></g><g><polygon fill="#fff" points="4066.363 3475.947 2181.78 3475.947 2184.054 3588.782 4061.668 3588.782"></polygon><path fill="#262525" d="M4061.668,3592.282H2184.054c-1.905,0-3.461-1.524-3.5-3.43l-2.273-112.835
									c-0.019-0.94,0.341-1.849,1-2.521c0.658-0.671,1.559-1.05,2.5-1.05h1884.582c0.953,0,1.865,0.389,2.526,1.077
									c0.659,0.688,1.01,1.615,0.971,2.568l-4.694,112.835C4065.087,3590.803,4063.544,3592.282,4061.668,3592.282z
									 M2187.484,3585.282h1870.827l4.403-105.835H2185.352L2187.484,3585.282z"></path></g></g><g><path fill="#262525" d="M2883.74,2728.824l56.16-35.708c0,0,5.758,137.4,127.056,151.034
								c233.557,26.253,348.278-162.042,348.278-162.042l56.373,44.971c0,0-136.148,181.381-384.19,181.381
								C2901.839,2908.461,2883.74,2728.824,2883.74,2728.824z"></path><path fill="#262525" d="M3087.417,2911.961c-42.979,0-80.637-9.614-111.929-28.575
								c-25.069-15.189-46.091-36.354-62.48-62.904c-27.825-45.077-32.562-89.439-32.751-91.307
								c-0.133-1.315,0.488-2.595,1.604-3.304l56.16-35.708c1.057-0.672,2.39-0.728,3.497-0.149
								c1.108,0.578,1.824,1.705,1.878,2.954c0.015,0.339,1.634,34.26,17.814,69.287c21.497,46.534,57.207,72.918,106.136,78.417
								c119.382,13.423,206.736-30.834,259-70.321c56.762-42.886,85.614-89.597,85.899-90.063c0.523-0.857,1.39-1.449,2.379-1.624
								c0.995-0.176,2.008,0.084,2.792,0.71l56.373,44.971c1.479,1.181,1.753,3.323,0.616,4.838
								c-0.344,0.457-35.123,46.316-99.877,91.46c-38.019,26.506-78.817,47.626-121.264,62.774
								C3200.196,2902.357,3144.396,2911.961,3087.417,2911.961z M2887.491,2730.586c1.305,9.347,7.909,48.15,31.609,86.438
								c36.12,58.351,92.749,87.937,168.316,87.937c127.107,0,223.994-48.893,282.891-89.909
								c55.007-38.308,88.042-77.062,96.396-87.406l-50.636-40.395c-7.747,11.583-36.331,51.479-85.276,88.515
								c-33.919,25.665-70.866,45.002-109.817,57.475c-48.691,15.592-100.644,20.432-154.408,14.389
								c-64.281-7.226-96.279-48.931-111.804-82.645c-12.807-27.812-16.732-54.307-17.895-65.793L2887.491,2730.586z"></path></g></g><g><g><path fill="#262525" d="M2130.011,3024.144v1480.316C2250,4526.466,2373.651,4538,2500,4538
								c51.231,0,102.014-1.914,152.297-5.629c0-309.57,0-601.385,0-802.033c0-664.138,126.027-1009.142,126.027-1009.142
								l-431.52,53.592C2222.484,2792.241,2130.011,2898.604,2130.011,3024.144z"></path><path fill="#262525" d="M2500,4541.5c-124.368,0-249.062-11.304-370.62-33.598c-1.662-0.305-2.869-1.753-2.869-3.442
								V3024.144c0-61.561,22.244-121.049,62.635-167.507c40.391-46.458,96.209-76.757,157.171-85.315l431.575-53.6
								c1.216-0.148,2.412,0.341,3.17,1.294c0.76,0.954,0.968,2.235,0.55,3.381c-0.315,0.861-31.813,88.079-62.907,255.209
								c-28.698,154.255-62.908,410.062-62.908,752.732v802.033c0,1.833-1.414,3.355-3.242,3.49
								C2601.913,4539.603,2550.587,4541.5,2500,4541.5z M2133.511,4501.541c120.237,21.872,243.52,32.959,366.489,32.959
								c49.335,0,99.38-1.811,148.797-5.383v-798.779c0-151.596,6.631-299.023,19.707-438.189
								c10.463-111.35,25.054-217.692,43.365-316.074c26.863-144.321,54.062-229.322,61.306-250.713l-425.938,52.899
								c-121.82,17.104-213.725,122.813-213.725,245.883V4501.541z"></path></g><g><path fill="#fff" d="M2657.141,3509.131l-44.592-411.821l-106.312-152.795l115.062-91.366l-115.062-108.316
								l250.625-34.827c21.436-2.979,38.812,17.101,32.782,37.885C2758.237,2856.138,2680.929,3151.513,2657.141,3509.131z"></path><path fill="#262525" d="M2657.141,3512.631c-1.783,0-3.286-1.344-3.479-3.123l-44.497-410.933l-105.801-152.062
								c-1.055-1.517-0.75-3.592,0.696-4.74l111.895-88.85l-112.117-105.543c-0.98-0.924-1.345-2.328-0.936-3.611
								c0.409-1.284,1.519-2.219,2.854-2.404l250.625-34.826c11.249-1.564,22.396,2.628,29.821,11.21
								c7.424,8.581,9.968,20.214,6.804,31.118c-31.905,109.964-108.673,404.194-132.372,760.496
								c-0.12,1.811-1.605,3.229-3.42,3.267C2657.189,3512.631,2657.165,3512.631,2657.141,3512.631z M2510.986,2945.213
								l104.436,150.098c0.335,0.481,0.544,1.039,0.606,1.622l40.418,373.267c26.484-339.483,99.031-617.108,129.837-723.283
								c2.5-8.616,0.49-17.808-5.375-24.587c-5.867-6.781-14.682-10.094-23.564-8.856l-243.386,33.82l109.741,103.307
								c0.739,0.697,1.141,1.681,1.098,2.696c-0.043,1.015-0.524,1.962-1.32,2.594L2510.986,2945.213z"></path></g><path fill="#fff" d="M2130.011,4287.603c-1.933,0-3.5-1.567-3.5-3.5v-828.599
							c-13.976-79.804-50.622-156.999-78.921-207.735c-30.752-55.133-58.564-91.79-58.841-92.153
							c-1.172-1.537-0.876-3.733,0.661-4.905c1.538-1.172,3.734-0.875,4.905,0.661c0.28,0.367,28.34,37.342,59.329,92.882
							c28.622,51.297,65.702,129.431,79.815,210.347c0.035,0.198,0.052,0.4,0.052,0.602v828.901
							C2133.511,4286.035,2131.944,4287.603,2130.011,4287.603z"></path></g><g><g><path fill="#262525" d="M4343.297,3370.347l4.748-328.411c1.977-136.697-99.352-252.926-235.042-269.605
								l-497.226-61.121c0,0-171.866,403.613-171.866,838.139c0,133.546,0,421.924,0,757.32
								C3836.267,4101.258,4153.413,3771.792,4343.297,3370.347z"></path><path fill="#262525" d="M3443.912,4310.168c-0.629,0-1.256-0.169-1.812-0.506c-1.048-0.634-1.688-1.77-1.688-2.994
								v-757.319c0-99.301,9.051-205.228,26.899-314.837c14.275-87.664,34.18-177.87,59.16-268.113
								c42.537-153.665,85.656-255.549,86.086-256.56c0.611-1.437,2.108-2.289,3.647-2.103l497.226,61.12
								c66.483,8.173,127.34,40.479,171.357,90.97c44.018,50.491,67.726,115.184,66.758,182.16l-4.748,328.411
								c-0.008,0.5-0.122,0.993-0.336,1.445c-94.58,199.958-220.549,382.516-374.407,542.603
								c-153.609,159.829-330.756,292.835-526.52,395.323C3445.026,4310.035,3444.469,4310.168,3443.912,4310.168z
								 M3617.985,2715.008c-6.75,16.3-46.008,113.214-84.8,253.378c-39.13,141.383-85.773,356.94-85.773,580.963v751.526
								c388.042-204.595,704.804-535.111,892.397-931.339l4.736-327.651c1.955-135.194-97.77-249.584-231.969-266.081
								L3617.985,2715.008z M4343.298,3370.347h0.01H4343.298z"></path></g><g><path fill="#fff" d="M3443.912,3516.759l118.221-374.174l149.67-149.67l-70.007-115.874l263.129-148.217
								l-289.296-35.539c-10.237-1.258-19.993,4.626-23.641,14.273C3561.635,2787.839,3433.322,3150.42,3443.912,3516.759z"></path><path fill="#262525" d="M3443.915,3520.259c-0.161,0-0.323-0.011-0.486-0.033c-1.691-0.236-2.966-1.658-3.015-3.365
								c-4.505-155.81,15.271-328.332,58.775-512.777c34.514-146.321,74.104-256.979,89.525-297.764
								c4.227-11.179,15.472-17.964,27.341-16.508l289.296,35.539c1.501,0.185,2.713,1.312,3.007,2.794
								c0.293,1.483-0.398,2.987-1.716,3.729l-259.985,146.446l68.142,112.785c0.832,1.378,0.617,3.146-0.521,4.284
								l-149.064,149.065l-117.964,373.358C3446.784,3519.285,3445.421,3520.259,3443.915,3520.259z M3612.869,2696.616
								c-7.767,0-14.804,4.765-17.607,12.179c-26.051,68.903-153.503,425.308-148.308,786.719l111.841-353.983
								c0.17-0.535,0.466-1.022,0.863-1.42l147.731-147.731l-68.59-113.527c-0.489-0.81-0.63-1.784-0.389-2.7
								c0.24-0.915,0.842-1.694,1.667-2.159L3893.931,2731l-278.729-34.241C3614.42,2696.663,3613.641,2696.616,3612.869,2696.616z"></path></g></g></g></g><g><path fill="#fff" d="M1797.214,4413.568L1453.75,2979.56c-29.601-165.117-161.321-275.538-326.438-245.936
					c-165.116,29.602-274.973,187.451-245.372,352.567l194.346,872.057C1279.861,4157.03,1524.904,4313.527,1797.214,4413.568z"></path><path fill="#262525" d="M1797.214,4417.068c-0.405,0-0.813-0.07-1.207-0.215
					c-134.945-49.576-265.119-113.824-386.906-190.961c-120.352-76.227-233.149-165.433-335.26-265.141
					c-0.486-0.475-0.823-1.08-0.971-1.742l-194.346-872.058c-0.011-0.048-0.021-0.096-0.029-0.145
					c-14.481-80.777,3.361-162.359,50.24-229.718s117.182-112.43,197.959-126.911c40.729-7.301,80.411-6.37,117.948,2.764
					c36.037,8.771,69.297,24.875,98.856,47.867c58.557,45.545,98.926,115.874,113.679,198.031l343.441,1433.912
					c0.3,1.255-0.114,2.573-1.078,3.431C1798.89,4416.763,1798.059,4417.068,1797.214,4417.068z M1079.477,3956.471
					c205.407,200.37,445.203,352.273,712.81,451.547l-341.939-1427.643c-0.016-0.065-0.029-0.132-0.042-0.198
					c-14.431-80.499-53.889-149.34-111.104-193.842c-59.566-46.33-132.624-63.368-211.271-49.266
					c-162.932,29.21-271.732,185.502-242.557,348.433L1079.477,3956.471z"></path></g><g><g><path fill="#fff" d="M1166.51,3087.148h-143.582c-186.193,0-337.133-150.94-337.133-337.133v-332.242h619.294v173.81
						l198.554-156.875v315.308C1503.643,2936.209,1352.704,3087.148,1166.51,3087.148z"></path><path fill="#262525" d="M945.155,3081.634c-0.266,0-0.537-0.031-0.807-0.095
						c-73.391-17.33-139.932-59.471-187.367-118.659c-23.698-29.57-42.158-62.574-54.867-98.098
						c-13.15-36.756-19.818-75.369-19.818-114.767v-332.243c0-1.933,1.567-3.5,3.5-3.5h619.294c1.933,0,3.5,1.567,3.5,3.5v166.584
						l192.884-152.396c1.052-0.833,2.488-0.989,3.696-0.404s1.974,1.808,1.974,3.15v315.308c0,66.507-19.172,130.943-55.443,186.343
						c-35.347,53.987-84.958,96.693-143.472,123.499c-1.756,0.806-3.834,0.034-4.64-1.724c-0.805-1.758-0.033-3.835,1.725-4.64
						c118.354-54.222,194.83-173.344,194.83-303.479v-308.082l-192.884,152.396c-1.053,0.833-2.488,0.988-3.696,0.403
						c-1.207-0.584-1.974-1.808-1.974-3.149v-170.31H689.295v328.743c0,155.5,105.543,289.026,256.661,324.711
						c1.881,0.444,3.046,2.329,2.602,4.211C948.178,3080.548,946.741,3081.634,945.155,3081.634z"></path></g><g><g><path fill="#fff" d="M754.718,2566.236c-50.064,0-90.649-40.585-90.649-90.649v-147.652
							c0-50.064,40.585-90.649,90.649-90.649c50.064,0,90.649,40.585,90.649,90.649v147.652
							C845.367,2525.651,804.782,2566.236,754.718,2566.236z"></path><path fill="#262525" d="M754.718,2569.735c-51.914,0-94.149-42.235-94.149-94.149v-147.651
							c0-51.914,42.235-94.149,94.149-94.149s94.149,42.235,94.149,94.149v147.651
							C848.867,2527.5,806.632,2569.735,754.718,2569.735z M754.718,2240.786c-48.054,0-87.149,39.095-87.149,87.149v147.651
							c0,48.054,39.095,87.149,87.149,87.149s87.149-39.095,87.149-87.149v-147.651
							C841.867,2279.881,802.772,2240.786,754.718,2240.786z"></path></g><g><path fill="#fff" d="M1146.406,2434.708H965.108v-561.676c0-50.064,40.585-90.649,90.649-90.649
							c50.064,0,90.649,40.585,90.649,90.649V2434.708z"></path><path fill="#262525" d="M965.108,2438.208c-1.933,0-3.5-1.567-3.5-3.5v-561.676c0-51.914,42.235-94.149,94.149-94.149
							s94.149,42.235,94.149,94.149v522.412c0,1.933-1.567,3.5-3.5,3.5s-3.5-1.567-3.5-3.5v-522.412
							c0-48.054-39.095-87.149-87.149-87.149s-87.149,39.095-87.149,87.149v561.676
							C968.608,2436.641,967.041,2438.208,965.108,2438.208z"></path></g><g><path fill="#fff" d="M1305.089,2417.773l-6.9,8.631l-6.639,8.304h-171.285l55.618-514.452
							c5.396-49.772,50.119-85.747,99.891-80.351c49.773,5.396,85.747,50.119,80.351,99.891L1305.089,2417.773z"></path><path fill="#262525" d="M1120.27,2438.208c-0.126,0-0.253-0.007-0.38-0.021c-1.922-0.208-3.312-1.934-3.104-3.855
							l55.618-514.452c5.596-51.613,52.137-89.052,103.749-83.455c25.001,2.71,47.451,14.995,63.213,34.59
							c15.762,19.595,22.95,44.156,20.24,69.158l-51.016,477.786v9.168c0,1.933-1.567,3.5-3.5,3.5s-3.5-1.567-3.5-3.5v-9.354
							c0-0.124,0.007-0.248,0.02-0.372l51.036-477.978c5.18-47.78-29.474-90.86-77.249-96.04
							c-47.771-5.176-90.854,29.475-96.034,77.249l-55.618,514.451C1123.551,2436.877,1122.034,2438.208,1120.27,2438.208z"></path></g><g><path fill="#fff" d="M874.459,2591.583c-50.064,0-90.649-40.585-90.649-90.649v-230.61
							c0-50.064,40.585-90.649,90.649-90.649c50.064,0,90.649,40.585,90.649,90.649v230.61
							C965.108,2550.998,924.523,2591.583,874.459,2591.583z"></path><path fill="#262525" d="M874.459,2595.083c-51.914,0-94.149-42.235-94.149-94.149v-230.609
							c0-51.914,42.235-94.149,94.149-94.149s94.149,42.235,94.149,94.149v230.609
							C968.608,2552.848,926.373,2595.083,874.459,2595.083z M874.458,2183.175c-48.054,0-87.149,39.095-87.149,87.149v230.609
							c0,48.055,39.095,87.149,87.149,87.149s87.149-39.095,87.149-87.149v-230.609
							C961.608,2222.27,922.513,2183.175,874.458,2183.175z"></path></g><g><g><path fill="#fff" d="M1441.533,2728.824l-167.707-68.874l127.051-289.555
								c19.019-46.311,71.979-68.435,118.29-49.417c46.311,19.019,68.436,71.979,49.417,118.29L1441.533,2728.824z"></path><path fill="#262525" d="M1002.095,2955.644c-0.262,0-0.528-0.03-0.794-0.092c-1.883-0.437-3.055-2.317-2.618-4.2
								c16.926-72.914,55.524-137.648,111.62-187.204l183.577-162.177l103.78-232.953c9.558-23.24,27.59-41.371,50.779-51.059
								c23.205-9.694,48.796-9.77,72.059-0.218c23.263,9.554,41.413,27.595,51.107,50.799s9.771,48.795,0.218,72.058
								c-0.022,0.053-0.045,0.106-0.07,0.158l-64.534,137.425l-0.076,50.219c-0.003,1.932-1.569,3.495-3.5,3.495
								c-0.002,0-0.003,0-0.005,0c-1.933-0.003-3.498-1.572-3.495-3.505l0.077-50.997c0.001-0.513,0.114-1.019,0.332-1.482
								l64.828-138.051c8.811-21.512,8.729-45.169-0.234-66.622c-8.973-21.479-25.774-38.179-47.307-47.022
								c-21.534-8.843-45.221-8.772-66.701,0.201c-21.479,8.973-38.179,25.774-47.021,47.307c-0.013,0.032-0.027,0.063-0.041,0.095
								l-104.111,233.693c-0.204,0.458-0.504,0.867-0.88,1.199l-184.146,162.681c-54.999,48.586-92.841,112.054-109.437,183.54
								C1005.126,2954.551,1003.687,2955.644,1002.095,2955.644z"></path></g><g><path fill="#fff" d="M1574.178,2390.049c8.159,49.395-25.269,96.052-74.663,104.211l-208.333,35.765
								c-49.395,8.159-96.052-25.269-104.211-74.663c-8.159-49.395,25.269-96.052,74.663-104.211l208.333-35.765
								C1519.362,2307.227,1566.019,2340.655,1574.178,2390.049z"></path><path fill="#262525" d="M1276.366,2534.743c-45.234,0-85.242-32.765-92.849-78.811
								c-4.099-24.812,1.71-49.735,16.357-70.178s36.377-33.958,61.189-38.057l208.311-35.762c24.837-4.1,49.757,1.708,70.2,16.354
								c20.443,14.646,33.958,36.377,38.057,61.189c3.392,20.535,0.042,41.078-9.687,59.414l-25.046,53.309
								c-0.822,1.749-2.907,2.499-4.656,1.68c-1.75-0.822-2.501-2.907-1.68-4.656l25.083-53.386
								c0.025-0.052,0.051-0.104,0.078-0.155c9.033-16.988,12.146-36.029,9.002-55.064c-3.794-22.967-16.305-43.082-35.228-56.64
								c-18.923-13.558-41.992-18.936-64.96-15.141l-208.311,35.762c-22.989,3.797-43.104,16.308-56.662,35.231
								s-18.935,41.993-15.141,64.96c7.832,47.412,52.777,79.612,100.188,71.781l171.74-29.483c1.909-0.323,3.715,0.953,4.042,2.857
								c0.327,1.905-0.953,3.715-2.857,4.042l-171.762,29.486C1286.598,2534.33,1281.449,2534.743,1276.366,2534.743z"></path></g></g></g></g><g><g><path fill="#fff" d="M4398.396,3078.867c-16.107-166.975-164.525-289.277-331.5-273.168
						c-166.973,16.107-289.274,164.524-273.167,331.497l119.424,831.24c221.547-213.256,394.958-476.157,502.303-770.825
						L4398.396,3078.867z"></path><path fill="#262525" d="M3913.151,3971.938c-0.38,0-0.765-0.062-1.136-0.189c-1.242-0.427-2.141-1.513-2.328-2.812
						l-119.424-831.24c-0.008-0.054-0.014-0.108-0.019-0.162c-7.88-81.687,16.522-161.553,68.711-224.886
						s125.917-102.552,207.604-110.431c81.694-7.883,161.554,16.521,224.887,68.709c63.314,52.174,102.528,125.867,110.425,207.524
						l17.049,118.664c0.082,0.571,0.021,1.154-0.176,1.696c-53.188,146.002-123.399,286.187-208.685,416.658
						c-84.259,128.901-183.336,248.506-294.48,355.49C3914.917,3971.597,3914.043,3971.938,3913.151,3971.938z M3797.204,3136.78
						l118.439,824.385c220.188-213.401,391.7-477.414,496.222-763.926l-16.935-117.874c-0.007-0.054-0.014-0.108-0.019-0.162
						c-7.701-79.826-46.026-151.875-107.917-202.875c-61.89-50.999-139.938-74.843-219.764-67.145
						c-79.825,7.7-151.874,46.025-202.873,107.916C3813.377,2978.967,3789.53,3056.985,3797.204,3136.78z"></path></g><g><g><path fill="#262525" d="M4458.987,3063.773c-43.178-182.696-218.941-305.035-407.669-278.802
							c-197.632,27.47-337.123,207.782-314.067,405.977l98.663,848.156C4129.129,3784.379,4348.828,3447.251,4458.987,3063.773z"></path><path fill="#262525" d="M3835.913,4042.604c-0.426,0-0.854-0.077-1.265-0.236c-1.21-0.47-2.061-1.57-2.211-2.859
							l-98.663-848.156c-11.257-96.77,15.373-192.5,74.984-269.557c59.611-77.056,145.582-126.879,242.078-140.292
							c91.852-12.769,184.503,9.122,260.88,61.636c76.014,52.264,129.525,130.334,150.677,219.829
							c0.138,0.584,0.123,1.194-0.042,1.771c-54.485,189.667-136.346,370.297-243.31,536.873
							c-105.321,164.018-233.451,312.1-380.833,440.135C3837.562,4042.31,3836.743,4042.604,3835.913,4042.604z M4102.995,2784.881
							c-16.893,0-33.985,1.164-51.194,3.557c-194.18,26.99-333.726,207.375-311.073,402.106l97.896,841.557
							c295.565-258.438,508.764-593.163,616.747-968.412C4415.7,2897.679,4269.213,2784.881,4102.995,2784.881z"></path></g><path fill="#fff" d="M3792.305 3432.322c-.024 0-.049 0-.073-.001-1.933-.04-3.467-1.639-3.427-3.571 2.251-109.116 19.601-208.701 51.567-295.99 25.604-69.911 60.586-132.136 103.977-184.945 73.993-90.056 147.978-121.967 148.716-122.278 1.782-.752 3.833.083 4.585 1.862.752 1.78-.081 3.833-1.861 4.586-.726.308-73.398 31.729-146.312 120.615-67.315 82.062-148.619 231.308-153.674 476.295C3795.764 3430.803 3794.204 3432.322 3792.305 3432.322zM3834.949 4034.338c-1.753 0-3.266-1.312-3.473-3.096l-32.815-282.096c-.224-1.92 1.152-3.657 3.072-3.881 1.937-.21 3.658 1.152 3.881 3.072l32.815 282.096c.224 1.92-1.152 3.657-3.072 3.881C3835.22 4034.33 3835.084 4034.338 3834.949 4034.338z"></path></g></g></g></g></g></svg>