<svg xmlns="http://www.w3.org/2000/svg" viewBox="0 0 24 24" fill="#fff" id="send-email"><path d="M21.5 21a.52.52 0 0 1-.182-.034l-8.994-3.5a.499.499 0 1 1 .363-.931l8.381 3.261L22.91 1.372 1.725 12.425l6.951 2.607a.5.5 0 1 1-.352.936l-8-3a.502.502 0 0 1-.055-.912l23-12a.498.498 0 0 1 .729.493l-2 20A.5.5 0 0 1 21.5 21z"></path><path d="m10 24.077-.045-.002a.5.5 0 0 1-.446-.407l-1.5-8.077a.498.498 0 0 1 .138-.444l15-15a.501.501 0 0 1 .77.631L12.953 17.23l-2.486 6.524a.5.5 0 0 1-.467.323zm-.96-8.41 1.127 6.068 1.872-4.913a.496.496 0 0 1 .051-.1L20.287 4.42z"></path><path d="M10 24.077a.5.5 0 0 1-.343-.864l5.674-5.345a.5.5 0 0 1 .686.728l-5.674 5.345a.5.5 0 0 1-.343.136z"></path></svg>