<svg width="22" height="22" viewBox="0 0 20 20" fill="red" xmlns="http://www.w3.org/2000/svg"><path d="M14.1274 1.01957V1.01957C14.4612 3.69008 16.5647 5.79356 19.2352 6.12736V6.12736V6.12736C16.5647 6.46118 14.4612 8.56466 14.1274 11.2352V11.2352V11.2352C13.7936 8.56471 11.6901 6.46117 9.01968 6.12733V6.12733V6.12733C11.6901 5.79355 13.7936 3.69001 14.1274 1.01957V1.01957Z" fill="white"></path><path d="M4.5689 6.01362V6.01362C4.80125 7.87244 6.2654 9.33656 8.12422 9.5689V9.5689V9.5689C6.2654 9.80126 4.80125 11.2654 4.56889 13.1242V13.1242V13.1242C4.33655 11.2654 2.87245 9.80126 1.01368 9.56889H1.01368V9.56889C2.87245 9.33656 4.33655 7.87239 4.5689 6.01362V6.01362Z" fill="white"></path><path d="M9.67949 13.0102V13.0102C9.85394 14.4058 10.9532 15.5051 12.3488 15.6795V15.6795V15.6795C10.9532 15.854 9.85394 16.9533 9.67949 18.3489V18.3489V18.3489C9.50504 16.9533 8.4058 15.854 7.01023 15.6795V15.6795V15.6795C8.4058 15.5051 9.50505 14.4058 9.67949 13.0102V13.0102Z" fill="white"></path></svg>