<svg xmlns="http://www.w3.org/2000/svg" width="32" height="32" enable-background="new 0 0 32 32" viewBox="0 0 32 32" id="ethereum-wallet"><path fill="#263238" d="M29.5,23H24c-2.21,0-4-1.79-4-4s1.79-4,4-4h5.5c0.83,0,1.5,0.67,1.5,1.5v5C31,22.33,30.33,23,29.5,23z
					 M24,16c-1.65,0-3,1.35-3,3s1.35,3,3,3h5.5c0.28,0,0.5-0.22,0.5-0.5v-5c0-0.28-0.22-0.5-0.5-0.5H24z"></path><path fill="#263238" d="M24 21c-1.1 0-2-.9-2-2s.9-2 2-2 2 .9 2 2S25.1 21 24 21zM24 18c-.55 0-1 .45-1 1s.45 1 1 1 1-.45 1-1S24.55 18 24 18zM29 31H2.5C1.67 31 1 30.33 1 29.5S1.67 28 2.5 28H28c.55 0 1-.45 1-1v-4.5c0-.28.22-.5.5-.5s.5.22.5.5V27c0 1.1-.9 2-2 2H2.5C2.22 29 2 29.22 2 29.5S2.22 30 2.5 30H29c.28 0 .5.22.5.5S29.28 31 29 31z"></path><path fill="#263238" d="M1.5 30C1.22 30 1 29.78 1 29.5V10c0-1.1.9-2 2-2h3c.28 0 .5.22.5.5S6.28 9 6 9H3c-.55 0-1 .45-1 1v19.5C2 29.78 1.78 30 1.5 30zM29.5 14c-.28 0-.5-.22-.5-.5V10c0-.55-.45-1-1-1H17c-.28 0-.5-.22-.5-.5S16.72 8 17 8h11c1.1 0 2 .9 2 2v3.5C30 13.78 29.78 14 29.5 14zM11.5 21.5c-.09 0-.18-.02-.26-.07-.24-.14-.31-.45-.17-.69l4.8-7.99L11.5 5.47l-4.52 7.54c-.14.24-.45.31-.69.17-.24-.14-.31-.45-.17-.69l4.95-8.25c.18-.3.68-.3.86 0l4.95 8.25c.09.16.09.36 0 .51l-4.95 8.25C11.83 21.41 11.67 21.5 11.5 21.5z"></path><path fill="#263238" d="M11.5,21.5c-0.17,0-0.33-0.09-0.43-0.24l-4.95-8.25c-0.14-0.24-0.07-0.54,0.17-0.69
					c0.24-0.14,0.54-0.07,0.69,0.17l4.95,8.25c0.14,0.24,0.07,0.54-0.17,0.69C11.68,21.48,11.59,21.5,11.5,21.5z"></path><path fill="#263238" d="M11.5,21.5c-0.18,0-0.34-0.09-0.43-0.24l-4.95-8.25c-0.11-0.19-0.09-0.43,0.06-0.6
					c0.15-0.16,0.39-0.21,0.59-0.11l4.73,2.36l4.73-2.36c0.2-0.1,0.44-0.06,0.59,0.11c0.15,0.16,0.18,0.41,0.06,0.6l-4.95,8.25
					C11.84,21.41,11.68,21.5,11.5,21.5z M7.86,13.97l3.64,6.06l3.64-6.06l-3.41,1.71c-0.14,0.07-0.31,0.07-0.45,0L7.86,13.97z"></path><path fill="#263238" d="M11.5 15.65c-.28 0-.5-.22-.5-.5V8.94c0-.28.22-.5.5-.5S12 8.67 12 8.94v6.21C12 15.43 11.78 15.65 11.5 15.65zM16.23 5.65c-.22 0-.42-.15-.48-.37-.07-.27.09-.54.35-.61l1.45-.39c.26-.07.54.09.61.35.07.27-.09.54-.35.61l-1.45.39C16.31 5.64 16.27 5.65 16.23 5.65zM6.77 5.65c-.04 0-.09-.01-.13-.02L5.19 5.24C4.93 5.17 4.77 4.9 4.84 4.63 4.91 4.36 5.19 4.2 5.45 4.28L6.9 4.66c.27.07.43.35.35.61C7.2 5.5 6.99 5.65 6.77 5.65zM8.34 3.06c-.13 0-.26-.05-.35-.15L6.93 1.85c-.2-.2-.2-.51 0-.71s.51-.2.71 0L8.7 2.21c.2.2.2.51 0 .71C8.6 3.01 8.47 3.06 8.34 3.06zM14.66 3.06c-.13 0-.26-.05-.35-.15-.2-.2-.2-.51 0-.71l1.06-1.06c.2-.2.51-.2.71 0s.2.51 0 .71l-1.06 1.06C14.91 3.01 14.79 3.06 14.66 3.06z"></path><g><path fill="#263238" d="M11.5,21.5c-0.18,0-0.34-0.09-0.43-0.24l-4.95-8.25c-0.09-0.16-0.09-0.36,0-0.51l4.95-8.25
					c0.18-0.3,0.68-0.3,0.86,0l4.95,8.25c0.09,0.16,0.09,0.36,0,0.51l-4.95,8.25C11.84,21.41,11.68,21.5,11.5,21.5z M7.13,12.75
					l4.37,7.28l4.37-7.28L11.5,5.47L7.13,12.75z"></path></g></svg>